<svg width="65" height="50" viewBox="0 0 65 50" fill="none" xmlns="http://www.w3.org/2000/svg">
<path d="M14.5188 32.1318H12.9975C12.6775 32.1318 12.4264 32.0817 12.2438 31.9857C12.0608 31.8897 11.9241 31.6977 11.8327 31.4056L11.5311 30.4053C11.175 30.7249 10.8275 31.0039 10.4849 31.2456C10.1423 31.4877 9.78619 31.6932 9.42064 31.8577C9.05509 32.0222 8.66695 32.1457 8.25585 32.2278C7.84475 32.3099 7.38771 32.3513 6.88513 32.3513C6.29144 32.3513 5.7433 32.2688 5.24072 32.1088C4.73813 31.9492 4.30896 31.7117 3.94793 31.3875C3.5869 31.0675 3.30379 30.67 3.10276 30.1907C2.90173 29.7153 2.80121 29.1626 2.80121 28.5275C2.80121 27.9978 2.94276 27.4726 3.22135 26.9561C3.50031 26.4355 3.96148 25.9694 4.61014 25.5538C5.25917 25.1336 6.12241 24.7862 7.20061 24.5125C8.27844 24.238 9.61716 24.1014 11.216 24.1014V23.2743C11.216 22.3241 11.0195 21.6205 10.6219 21.1683C10.2248 20.7113 9.64464 20.4831 8.88605 20.4831C8.33792 20.4831 7.88126 20.5471 7.51571 20.6748C7.15016 20.8028 6.83506 20.9447 6.56551 21.1043C6.29596 21.2643 6.04485 21.4104 5.81634 21.5384C5.58782 21.666 5.33672 21.7304 5.06265 21.7304C4.83413 21.7304 4.63799 21.6705 4.47348 21.5523C4.30896 21.4333 4.17607 21.2869 4.07593 21.1133L3.45927 20.031C5.0762 18.5413 7.02706 17.797 9.31071 17.797C10.1333 17.797 10.8685 17.9337 11.5127 18.2036C12.1572 18.4732 12.7008 18.8478 13.1484 19.327C13.596 19.807 13.9386 20.3826 14.1717 21.0493C14.4043 21.7165 14.5188 22.4472 14.5188 23.2423V32.1318ZM7.94037 30.0217C8.28785 30.0217 8.60747 29.9897 8.89961 29.9253C9.1925 29.8617 9.47071 29.7653 9.73122 29.6377C9.99174 29.5097 10.2428 29.3497 10.4849 29.1626C10.727 28.9751 10.9694 28.756 11.216 28.5004V26.1569C10.2293 26.1569 9.40709 26.2205 8.7445 26.344C8.0823 26.4675 7.54771 26.6271 7.14565 26.8236C6.74358 27.0156 6.46047 27.2441 6.29144 27.4997C6.12241 27.7603 6.03582 28.0388 6.03582 28.3449C6.03582 28.9431 6.21389 29.3772 6.56551 29.6332C6.91713 29.8937 7.37416 30.0217 7.94037 30.0217ZM17.849 32.1318V18.0711H19.836C20.1831 18.0711 20.4255 18.1347 20.5622 18.2627C20.6992 18.3911 20.7911 18.6102 20.8366 18.9208L21.0422 20.6202C21.5444 19.7479 22.1336 19.0578 22.8101 18.5553C23.4858 18.0481 24.2444 17.797 25.0847 17.797C25.7793 17.797 26.3549 17.9616 26.8116 18.2902L26.373 20.8257C26.3459 20.9902 26.2864 21.1043 26.1949 21.1728C26.1038 21.2413 25.9803 21.2779 25.8248 21.2779C25.6878 21.2779 25.5007 21.2459 25.2628 21.1822C25.0256 21.1182 24.7105 21.0859 24.3175 21.0859C23.6138 21.0859 23.0111 21.2779 22.5082 21.666C22.006 22.0545 21.5813 22.6256 21.2338 23.3748V32.1318H17.849ZM33.9102 17.8245C34.5133 17.8245 35.0799 17.8882 35.61 18.0116C36.1401 18.1347 36.6238 18.3177 37.0624 18.5553H41.1057V19.848C41.1057 20.0626 41.0507 20.2317 40.9411 20.3551C40.8312 20.4782 40.6437 20.5607 40.3791 20.6066L39.1183 20.8483C39.2094 21.0813 39.2828 21.3328 39.3329 21.5933C39.3833 21.8535 39.4059 22.1324 39.4059 22.4201C39.4059 23.1098 39.2689 23.7313 38.9903 24.284C38.7117 24.8411 38.3281 25.3162 37.8391 25.7047C37.3504 26.0929 36.7703 26.3941 36.0986 26.6041C35.427 26.8191 34.6963 26.9241 33.9102 26.9241C33.3809 26.9241 32.8644 26.8741 32.3618 26.7735C31.9232 27.0431 31.7041 27.3443 31.7041 27.6782C31.7041 27.9658 31.8367 28.1759 32.0968 28.3084C32.3573 28.4454 32.6999 28.5414 33.1245 28.596C33.5496 28.651 34.0292 28.6785 34.5683 28.6785C35.1074 28.6785 35.6601 28.7014 36.2266 28.747C36.7932 28.7925 37.3459 28.875 37.8846 28.9891C38.4237 29.1031 38.9082 29.2816 39.3329 29.5327C39.7579 29.7793 40.1005 30.1128 40.3606 30.542C40.6211 30.967 40.7491 31.5152 40.7491 32.1868C40.7491 32.8079 40.5982 33.411 40.2925 34.0002C39.986 34.5852 39.5429 35.1104 38.9628 35.5674C38.3827 36.0241 37.67 36.3942 36.8294 36.6728C35.9891 36.9513 35.0298 37.0933 33.9516 37.0933C32.8825 37.0933 31.9552 36.9879 31.1695 36.7823C30.3839 36.5768 29.7352 36.3027 29.2187 35.9601C28.7029 35.6175 28.3144 35.2245 28.0588 34.7769C27.8028 34.3292 27.6752 33.8632 27.6752 33.379C27.6752 32.721 27.8762 32.1642 28.2779 31.7162C28.68 31.2686 29.2375 30.912 29.9498 30.6474C29.6027 30.4554 29.3241 30.1998 29.114 29.8798C28.904 29.5598 28.7986 29.1442 28.7986 28.6284C28.7986 28.4183 28.8351 28.2034 28.9085 27.9748C28.9811 27.7509 29.0956 27.5317 29.2466 27.3126C29.3971 27.0932 29.5842 26.8831 29.8128 26.6866C30.0413 26.4904 30.3108 26.312 30.6214 26.1569C29.9088 25.7729 29.3512 25.2616 28.945 24.6217C28.5384 23.9824 28.3329 23.2329 28.3329 22.3745C28.3329 21.6799 28.4744 21.0494 28.753 20.4877C29.0316 19.9256 29.4197 19.446 29.9178 19.0488C30.4159 18.6513 31.005 18.3497 31.6857 18.1393C32.3663 17.9292 33.1065 17.8245 33.9102 17.8245ZM37.6245 32.7304C37.6245 32.4473 37.5424 32.2188 37.3779 32.0407C37.2134 31.8623 36.9894 31.7252 36.7063 31.6251C36.4232 31.5287 36.0941 31.456 35.7146 31.4056C35.3359 31.36 34.9338 31.3371 34.5088 31.3371C34.0842 31.3371 33.6456 31.3371 33.1934 31.3371C32.7409 31.3371 32.3023 31.2866 31.8822 31.1865C31.4986 31.4011 31.1925 31.6477 30.9595 31.9353C30.7264 32.2278 30.6079 32.5568 30.6079 32.9359C30.6079 33.1829 30.6719 33.4156 30.795 33.6301C30.9184 33.8451 31.1146 34.0277 31.3841 34.1877C31.6537 34.3432 32.0012 34.4618 32.4303 34.5487C32.8599 34.6353 33.3854 34.6809 34.0066 34.6809C34.6368 34.6809 35.1804 34.6308 35.6371 34.5348C36.0941 34.4343 36.4732 34.2972 36.7703 34.1237C37.0669 33.9547 37.2815 33.7446 37.4189 33.5067C37.5559 33.2695 37.6245 33.009 37.6245 32.7304ZM33.9102 24.7591C34.3308 24.7591 34.6963 24.7041 35.0069 24.5897C35.3175 24.476 35.578 24.316 35.7835 24.1149C35.9891 23.9184 36.1446 23.6763 36.2492 23.3929C36.3546 23.1098 36.4047 22.7992 36.4047 22.4611C36.4047 21.7714 36.1992 21.2233 35.7835 20.8167C35.3679 20.4101 34.7419 20.2091 33.9102 20.2091C33.079 20.2091 32.4578 20.4101 32.0422 20.8167C31.6266 21.2233 31.4165 21.7714 31.4165 22.4611C31.4165 22.7901 31.4711 23.0962 31.5761 23.3793C31.6812 23.6624 31.8367 23.9049 32.0422 24.1104C32.2478 24.316 32.5079 24.476 32.8234 24.5897C33.1385 24.7041 33.4991 24.7591 33.9102 24.7591ZM43.8328 32.1183V20.6066L42.6127 20.4146C42.348 20.3691 42.1376 20.2776 41.9779 20.1406C41.8179 20.0035 41.7359 19.8115 41.7359 19.5649V18.1807H43.8328V17.139C43.8328 16.3352 43.9559 15.6135 44.198 14.9735C44.44 14.3343 44.7871 13.7907 45.2397 13.3431C45.6918 12.8954 46.2399 12.5529 46.8886 12.3153C47.5372 12.0777 48.2683 11.9588 49.0811 11.9588C49.7302 11.9588 50.3333 12.0458 50.8904 12.2189L50.8219 13.9187C50.8035 14.1833 50.68 14.3478 50.4518 14.4118C50.2233 14.4758 49.9587 14.5078 49.6567 14.5078C49.2551 14.5078 48.8985 14.5489 48.5834 14.6358C48.2683 14.7224 47.9988 14.8734 47.7797 15.088C47.5602 15.3026 47.3957 15.5857 47.2816 15.9377C47.1675 16.2893 47.1077 16.7279 47.1077 17.2489V18.1807H50.7669V20.5927H47.2176V32.1183H43.8328Z" fill="white"/>
<path fill-rule="evenodd" clip-rule="evenodd" d="M50.1047 30.8017C53.5652 30.8017 56.3963 33.6328 56.3963 37.0933C56.3963 33.6328 59.2273 30.8017 62.6874 30.8017C59.2273 30.8017 56.3963 27.9707 56.3963 24.5106C56.3963 27.9707 53.5652 30.8017 50.1047 30.8017Z" fill="white"/>
</svg>
